<svg width="186" height="83" viewBox="0 0 186 83" fill="none" xmlns="http://www.w3.org/2000/svg">
<g clip-path="url(#clip0_5117_37606)">
<path d="M90.1031 80.5707C90.1031 81.0902 90.2522 81.7086 90.6499 82.1291H84.1875C84.5852 81.7086 84.7343 81.0902 84.7343 80.5707V66.867C84.7343 66.3475 84.5852 65.7291 84.1875 65.3086H95.2234V70.33C94.5771 70.0084 93.7569 69.959 93.0112 69.959H90.0783V71.74H91.8181C92.3401 71.74 92.9118 71.6163 93.384 71.4184V75.9204C92.9118 75.6977 92.3401 75.5988 91.8181 75.5988H90.0783V80.5707H90.1031Z" fill="#78BE20"/>
<path d="M103.95 77.1578C105.715 77.1578 107.157 75.7478 107.157 73.6947C107.157 71.6664 105.715 70.2317 103.95 70.2317C102.185 70.2317 100.744 71.6416 100.744 73.6947C100.744 75.7478 102.185 77.1578 103.95 77.1578ZM112.525 73.6947C112.525 78.444 108.822 82.5007 103.95 82.5007C99.0785 82.5007 95.375 78.4688 95.375 73.6947C95.375 68.9454 99.0785 64.8887 103.95 64.8887C108.797 64.9134 112.525 68.9454 112.525 73.6947Z" fill="#78BE20"/>
<path d="M118.883 72.8543C119.753 72.8543 120.896 72.5575 120.896 71.296C120.896 70.0344 119.753 69.7376 118.883 69.7376V72.8543ZM113.539 64.9141C113.912 65.2356 114.434 65.4583 115.055 65.4583C116.074 65.4583 117.218 64.9141 119.132 64.9141C122.785 64.9141 125.768 66.9672 125.768 70.8507C125.768 72.1617 125.171 73.5469 124.277 74.5364C126.166 75.5011 127.657 77.8015 127.657 80.572C127.657 81.0914 127.806 81.7098 128.204 82.1304H121.741C122.139 81.7098 122.288 81.0914 122.288 80.572C122.288 79.2115 120.772 77.6037 118.908 77.2079V80.572C118.908 81.0914 119.057 81.7098 119.455 82.1304H112.992C113.39 81.7098 113.539 81.0914 113.539 80.572V64.9141Z" fill="#78BE20"/>
<path d="M139.122 82.1291H128.633C129.031 81.7086 129.18 81.0902 129.18 80.5707V66.867C129.18 66.3475 129.031 65.7291 128.633 65.3086H139.122V70.3795C138.376 70.0579 137.407 69.9342 136.562 69.9342H134.3V71.7152H135.518C136.139 71.7152 136.761 71.641 137.382 71.3937V75.8956C136.761 75.6235 136.139 75.5741 135.518 75.5741H134.3V77.5282H136.562C137.407 77.5282 138.401 77.4045 139.122 77.083V82.1291Z" fill="#78BE20"/>
<path d="M146.298 82.1304L140.631 66.5962C140.432 66.1015 140.084 65.6809 139.711 65.2852H146.546C146.422 65.5573 146.372 65.8788 146.372 66.1757C146.372 66.5962 146.596 67.1898 146.72 67.6846L148.957 75.5259H149.007L151.393 67.6846C151.542 67.1898 151.791 66.6456 151.791 66.1509C151.791 65.9036 151.716 65.5325 151.517 65.4088V65.2852H158.402C157.781 65.8788 157.508 66.7198 157.16 67.6351L152.462 80.3247C152.362 80.5968 152.213 81.0915 152.213 81.3636C152.213 81.7346 152.462 81.9325 152.735 82.1304H146.298Z" fill="#78BE20"/>
<path d="M169.122 82.1291H158.633C159.031 81.7086 159.18 81.0902 159.18 80.5707V66.867C159.18 66.3475 159.031 65.7291 158.633 65.3086H169.122V70.3795C168.376 70.0579 167.407 69.9342 166.562 69.9342H164.3V71.7152H165.518C166.139 71.7152 166.761 71.641 167.382 71.3937V75.8956C166.761 75.6235 166.139 75.5741 165.518 75.5741H164.3V77.5282H166.562C167.407 77.5282 168.401 77.4045 169.122 77.083V82.1291Z" fill="#78BE20"/>
<path d="M176.205 72.8543C177.075 72.8543 178.218 72.5575 178.218 71.296C178.218 70.0344 177.075 69.7376 176.205 69.7376V72.8543ZM170.836 64.9141C171.209 65.2356 171.731 65.4583 172.352 65.4583C173.371 65.4583 174.515 64.9141 176.428 64.9141C180.082 64.9141 183.065 66.9672 183.065 70.8507C183.065 72.1617 182.468 73.5469 181.573 74.5364C183.463 75.5011 184.954 77.8015 184.954 80.572C184.954 81.0914 185.103 81.7098 185.501 82.1304H179.038C179.436 81.7098 179.585 81.0914 179.585 80.572C179.585 79.2115 178.069 77.6037 176.205 77.2079V80.572C176.205 81.0914 176.354 81.7098 176.752 82.1304H170.289C170.687 81.7098 170.836 81.0914 170.836 80.572V64.9141Z" fill="#78BE20"/>
<path d="M40.6627 0.5C24.0592 0.5 18.1932 26.176 12.725 46.8306C10.7614 44.8517 4.6718 38.8161 4.6718 38.8161C3.45388 37.6041 2.03711 37.9998 1.19203 38.8409C0.32208 39.7066 0.197803 41.2897 1.19203 42.2545C1.24174 42.3039 9.41922 50.4173 12.2528 53.2373C13.0233 54.0041 14.1666 54.4493 15.2851 53.7814C16.4533 53.0641 16.6273 51.8026 16.6522 51.8026C26.3459 8.58869 35.0205 5.34827 40.6378 5.34827C45.3604 5.34827 50.8286 8.83605 50.8286 15.7869C57.8876 15.7869 62.3119 25.0134 56.6199 30.678C61.3425 32.929 63.4304 35.7241 63.4304 39.2614C63.4304 42.7986 60.4477 46.3854 56.1228 46.3854C51.8228 46.3854 49.6355 43.6397 46.28 43.6397C44.7638 43.6397 43.8442 44.8517 43.8442 46.0638V54.7956H37.5309V46.1133C37.5309 44.7528 36.5118 43.6891 35.2442 43.6891C35.2193 43.6891 34.6973 43.7139 34.7222 43.7139L26.2464 44.7528C25.2274 44.9012 24.2829 45.9896 24.2829 47.1522C24.2829 48.4879 25.3765 49.6011 26.8927 49.5763C27.0667 49.5763 27.3401 49.5763 27.3152 49.5516C27.2904 49.5516 32.684 48.859 32.684 48.859V57.4671C32.684 58.5555 33.9268 59.6192 35.0453 59.6192H46.3049C47.6222 59.6192 48.7407 58.506 48.7407 57.1703V49.3042C51.102 50.7389 54.3829 51.2831 56.0483 51.2831C62.3616 51.2831 68.4015 46.3359 68.3518 39.113C68.3269 32.5332 63.2812 29.268 63.2812 29.268C66.2391 21.4267 61.4668 13.8327 55.2529 11.7302C52.991 3.64148 46.0315 0.5 40.6627 0.5Z" fill="white"/>
<path d="M33.5791 69.2426C33.5791 71.271 35.8658 72.5078 39.619 74.264C42.6017 75.6492 44.3167 77.1087 44.3167 78.296C44.3167 80.2007 42.2537 80.8685 40.315 80.8685C37.3323 80.8685 35.5676 79.6812 34.5982 77.0345L34.5236 76.8118H34.2751C33.7531 76.8118 33.3306 76.8366 33.082 77.1334C32.8832 77.4055 32.9329 77.7518 33.0323 78.0981L33.6786 80.8191C33.8525 81.4869 34.1011 81.5859 35.1699 81.8085C35.6421 81.8827 38.0531 82.3032 40.0913 82.3032C45.8081 82.3032 48.3433 80.0028 48.3433 77.7023C48.3433 76.045 46.678 74.4372 43.0988 72.6562L41.4583 71.8894C38.9976 70.7268 37.5312 70.0342 37.5312 68.8221C37.5312 67.6348 39.0474 66.8185 41.2595 66.8185C44.1179 66.8185 44.8884 68.4016 45.2364 69.7868L45.311 70.0589H45.5844C46.2306 70.0589 46.6283 70.0094 46.852 69.7373C47.0011 69.5889 47.0508 69.391 47.026 69.1684L46.8023 66.7937C46.7277 66.0269 46.156 65.928 45.3607 65.7796C44.3913 65.6064 43.2479 65.4085 41.5081 65.4085C36.5369 65.3838 33.5791 66.8185 33.5791 69.2426Z" fill="white"/>
<path d="M50.0078 74.0163C50.0078 78.1225 53.587 82.2782 60.4471 82.2782C63.9021 82.2782 65.8657 81.4866 67.3073 80.7198L67.705 80.4972L67.0587 79.8046L67.0836 79.8293C66.9344 79.6067 66.8102 79.5819 66.5865 79.5819L66.2633 79.7056C65.7414 79.953 64.1506 80.6703 61.2674 80.6703C57.713 80.6703 53.9101 78.3699 53.9101 73.299C53.9101 68.4755 58.061 66.7687 61.5905 66.7687C64.1506 66.7687 65.4928 67.6839 65.7414 69.5391L65.7911 69.8359H66.1142C66.4125 69.8359 67.2079 69.8359 67.2079 69.2423V66.4224C67.2079 65.7298 66.4125 65.6308 66.0645 65.5813L65.7414 65.5319C64.9211 65.4082 64.1506 65.334 62.0876 65.334C55.1032 65.3835 50.0078 69.0197 50.0078 74.0163Z" fill="white"/>
<path d="M24.158 65.582L17.9689 65.6315L13.8678 65.5573L13.2464 65.5326C12.8736 65.5326 12.625 65.8046 12.625 66.1757C12.625 66.3488 12.625 66.893 13.2961 66.893C15.7817 66.893 15.8811 67.0909 15.9059 68.0556L15.9308 68.6493L15.9805 71.1724V76.6143C15.9805 77.5295 15.9556 78.9642 15.8811 80.1021C15.8562 80.4237 15.8314 80.7452 13.6441 80.7452C13.0227 80.7452 12.6499 80.8689 12.6499 81.4626C12.6499 81.6357 12.6499 82.1057 13.2464 82.1057H13.3955C13.6689 82.081 14.3649 82.0562 17.795 82.0562C21.4487 82.0562 22.1944 82.1057 22.443 82.1057H22.5672C23.0395 82.1057 23.462 82.0562 23.462 81.4626C23.462 80.7947 22.8904 80.7452 21.9707 80.7452C19.7585 80.7452 19.7585 80.4237 19.7337 80.1021C19.684 79.0384 19.6343 77.6037 19.6343 76.5896V74.6354H21.4736C24.3071 74.6354 24.6302 74.7096 25.0279 76.8864C25.1274 77.3564 25.525 77.4059 25.8482 77.4059C26.5193 77.4059 26.5938 77.0348 26.5938 76.8864L26.5441 76.0701C26.4944 75.6001 26.4447 75.0065 26.4447 74.2396V70.9003C26.4447 70.4056 25.8482 70.4056 25.525 70.4056C24.9782 70.4056 24.8539 70.7519 24.5308 72.335C24.3817 72.9286 23.2135 73.2749 21.3245 73.2749H19.6343V68.3772C19.6343 67.0414 19.8828 67.0414 20.1562 67.0167C21.2499 66.9672 23.8597 66.8683 24.6551 66.8683C25.4008 66.8683 26.0967 67.0415 26.5441 67.3383C27.936 68.204 28.6568 68.7977 29.1042 69.144C29.5268 69.4903 29.7753 69.6882 30.1233 69.6882C30.3222 69.6882 30.9187 69.6882 30.9187 69.1688C30.9187 69.0451 30.869 68.9214 30.6701 68.5009C30.4464 68.0062 30.0488 67.1651 29.5765 65.9036C29.4522 65.5078 28.98 65.5078 28.11 65.5078L24.158 65.582Z" fill="white"/>
<path d="M90.1031 38.9907C90.1031 39.5101 90.2522 40.1285 90.6499 40.549H84.1875C84.5852 40.1285 84.7343 39.5101 84.7343 38.9907V25.2869C84.7343 24.7674 84.5852 24.149 84.1875 23.7285H95.2233V28.7499C94.5771 28.4284 93.7569 28.3789 93.0112 28.3789H90.0782V30.1599H91.8181C92.3401 30.1599 92.9118 30.0362 93.384 29.8383V34.3403C92.9118 34.1177 92.3401 34.0187 91.8181 34.0187H90.0782V38.9907H90.1031Z" fill="white"/>
<path d="M103.95 35.6011C105.715 35.6011 107.157 34.1912 107.157 32.1381C107.157 30.1097 105.715 28.675 103.95 28.675C102.185 28.675 100.744 30.085 100.744 32.1381C100.744 34.1664 102.185 35.6011 103.95 35.6011ZM112.525 32.1381C112.525 36.8874 108.822 40.9194 103.95 40.9194C99.0785 40.9194 95.375 36.8874 95.375 32.1381C95.375 27.3887 99.0785 23.332 103.95 23.332C108.797 23.3568 112.525 27.3887 112.525 32.1381Z" fill="white"/>
<path d="M118.883 31.2977C119.753 31.2977 120.896 31.0009 120.896 29.7393C120.896 28.4778 119.753 28.181 118.883 28.181V31.2977ZM113.539 23.3574C113.912 23.679 114.434 23.9016 115.055 23.9016C116.074 23.9016 117.218 23.3574 119.132 23.3574C122.785 23.3574 125.768 25.4105 125.768 29.2941C125.768 30.6051 125.171 31.9903 124.277 32.9797C126.166 33.9445 127.657 36.2449 127.657 39.0153C127.657 39.5348 127.806 40.1532 128.204 40.5737H121.741C122.139 40.1532 122.288 39.5348 122.288 39.0153C122.288 37.6549 120.772 36.047 118.908 35.6512V39.0153C118.908 39.5348 119.057 40.1532 119.455 40.5737H112.992C113.39 40.1532 113.539 39.5348 113.539 39.0153V23.3574Z" fill="white"/>
<path d="M139.122 40.549H128.633C129.031 40.1285 129.18 39.5101 129.18 38.9907V25.2869C129.18 24.7674 129.031 24.149 128.633 23.7285H139.122V28.8241C138.376 28.5026 137.407 28.3789 136.562 28.3789H134.3V30.1599H135.518C136.139 30.1599 136.761 30.0857 137.382 29.8383V34.3403C136.761 34.0682 136.139 34.0187 135.518 34.0187H134.3V35.9729H136.562C137.407 35.9729 138.401 35.8492 139.122 35.5276V40.549Z" fill="white"/>
<path d="M140.832 33.9197C141.826 35.0823 143.268 36.5417 144.883 36.5417C145.48 36.5417 146.176 36.146 146.176 35.4534C146.176 34.365 144.809 33.7713 143.417 32.8313C142.025 31.9161 140.633 30.6298 140.633 28.2799C140.633 24.8416 143.019 23.3574 146.25 23.3574C147.17 23.3574 148.239 23.8521 148.611 23.8521C148.984 23.8521 149.332 23.8027 149.581 23.5553V29.0714C149.233 28.3541 148.139 27.1915 147.244 27.1915C146.374 27.1915 146.002 27.4636 146.002 28.082C146.002 29.022 147.369 29.5167 148.785 30.4567C150.152 31.3719 151.544 32.7324 151.544 35.4534C151.544 39.1638 148.761 40.9695 145.306 40.9695C144.162 40.9695 143.069 40.4748 142.199 40.4748C141.677 40.4748 141.279 40.5737 140.857 40.7716V33.9197H140.832Z" fill="white"/>
<path d="M151.023 23.7285H162.755V28.7005C162.283 28.4531 161.587 28.3789 160.991 28.3789H159.574V39.0154C159.574 39.5349 159.723 40.1533 160.121 40.5738H153.658C154.056 40.1533 154.205 39.5349 154.205 39.0154V28.3789H152.788C152.192 28.3789 151.496 28.4778 151.023 28.7005V23.7285Z" fill="white"/>
<path d="M164.144 33.9197C165.138 35.0823 166.58 36.5417 168.196 36.5417C168.792 36.5417 169.488 36.146 169.488 35.4534C169.488 34.365 168.121 33.7713 166.729 32.8313C165.337 31.9161 163.945 30.6298 163.945 28.2799C163.945 24.8416 166.356 23.3574 169.563 23.3574C170.482 23.3574 171.551 23.8521 171.924 23.8521C172.297 23.8521 172.645 23.8027 172.893 23.5553V29.0714C172.545 28.3541 171.452 27.1915 170.557 27.1915C169.687 27.1915 169.314 27.4636 169.314 28.082C169.314 29.022 170.681 29.5167 172.098 30.4567C173.465 31.3719 174.857 32.7324 174.857 35.4534C174.857 39.1638 172.073 40.9695 168.618 40.9695C167.475 40.9695 166.381 40.4748 165.511 40.4748C164.989 40.4748 164.592 40.5737 164.169 40.7716V33.9197H164.144Z" fill="white"/>
<path d="M90.1031 59.768C90.1031 60.2875 90.2522 60.9059 90.6499 61.3264H84.1875C84.5852 60.9059 84.7343 60.2875 84.7343 59.768V46.0642C84.7343 45.5448 84.5852 44.9264 84.1875 44.5059H95.2233V49.5273C94.5771 49.2057 93.7569 49.1562 93.0112 49.1562H90.0782V50.9372H91.8181C92.3401 50.9372 92.9118 50.8136 93.384 50.6157V55.1176C92.9118 54.895 92.3401 54.7961 91.8181 54.7961H90.0782V59.768H90.1031Z" fill="white"/>
<path d="M103.95 56.3785C105.715 56.3785 107.157 54.9685 107.157 52.9154C107.157 50.8871 105.715 49.4524 103.95 49.4524C102.185 49.4524 100.744 50.8623 100.744 52.9154C100.744 54.9438 102.185 56.3785 103.95 56.3785ZM112.525 52.9154C112.525 57.6647 108.822 61.6967 103.95 61.6967C99.0785 61.6967 95.375 57.6647 95.375 52.9154C95.375 48.1661 99.0785 44.1094 103.95 44.1094C108.797 44.1341 112.525 48.1661 112.525 52.9154Z" fill="white"/>
<path d="M118.883 52.075C119.753 52.075 120.896 51.7782 120.896 50.5167C120.896 49.2551 119.753 48.9583 118.883 48.9583V52.075ZM113.539 44.1348C113.912 44.4563 114.434 44.679 115.055 44.679C116.074 44.679 117.218 44.1348 119.132 44.1348C122.785 44.1348 125.768 46.1879 125.768 50.0714C125.768 51.3824 125.171 52.7676 124.277 53.7571C126.166 54.7218 127.657 57.0222 127.657 59.7927C127.657 60.3121 127.806 60.9305 128.204 61.3511H121.741C122.139 60.9305 122.288 60.3121 122.288 59.7927C122.288 58.4322 120.772 56.8244 118.908 56.4286V59.7927C118.908 60.3121 119.057 60.9305 119.455 61.3511H112.992C113.39 60.9305 113.539 60.3121 113.539 59.7927V44.1348Z" fill="white"/>
<path d="M145.055 55.0434L143.937 49.8736H143.837L142.768 55.0434H145.055ZM146.696 44.5059L152.338 59.867C152.586 60.5101 152.934 60.9553 153.307 61.3264H146.472C146.596 61.0543 146.646 60.7327 146.646 60.4359C146.646 59.9164 146.447 59.4217 146.298 58.927H141.65C141.376 59.3475 141.252 59.9659 141.252 60.4606C141.252 60.708 141.327 61.079 141.526 61.2274V61.3511H134.641C135.262 60.7574 135.535 59.9164 135.883 59.0012L140.581 46.3116C140.681 46.0395 140.83 45.5448 140.83 45.2727C140.83 44.9016 140.581 44.7037 140.308 44.5059H146.696Z" fill="white"/>
<path d="M159.72 56.6994H161.212C161.957 56.6994 162.778 56.65 163.424 56.3284V61.3498H153.805C154.202 60.9293 154.352 60.3109 154.352 59.7914V46.0877C154.352 45.5682 154.202 44.9498 153.805 44.5293H160.267C159.869 44.9498 159.72 45.5682 159.72 46.0877V56.6994Z" fill="white"/>
<path d="M170.291 56.6994H171.782C172.528 56.6994 173.348 56.65 173.994 56.3284V61.3498H164.375C164.773 60.9293 164.922 60.3109 164.922 59.7914V46.0877C164.922 45.5682 164.773 44.9498 164.375 44.5293H170.837C170.44 44.9498 170.291 45.5682 170.291 46.0877V56.6994Z" fill="white"/>
<path d="M181.053 17.9883C178.791 17.9883 176.977 19.8187 176.977 22.0697C176.977 24.3207 178.791 26.1264 181.053 26.1264C183.315 26.1264 185.154 24.3207 185.154 22.0697C185.154 19.8187 183.315 17.9883 181.053 17.9883ZM181.053 25.4338C179.189 25.4338 177.673 23.9249 177.673 22.0697C177.673 20.2145 179.189 18.7056 181.053 18.7056C182.942 18.7056 184.433 20.2145 184.433 22.0697C184.433 23.9249 182.917 25.4338 181.053 25.4338Z" fill="white"/>
<path d="M182.864 24.2969L182.118 22.9117C181.944 22.6148 181.795 22.4169 181.646 22.318C181.92 22.1943 182.118 22.0212 182.267 21.7985C182.417 21.5512 182.491 21.3038 182.491 21.0317C182.491 20.8338 182.441 20.5865 182.342 20.3886C182.218 20.2154 182.094 20.0423 181.895 19.9433C181.721 19.8444 181.447 19.7949 181.099 19.7949H179.633V24.3464H180.428V22.4664H180.9C180.925 22.4664 181 22.4912 181.224 22.8869L181.373 23.159L181.969 24.3216L181.994 24.3464H182.889L182.864 24.2969ZM180.876 21.8975H180.403V20.3639H180.925C181.174 20.3639 181.348 20.4133 181.447 20.4628C181.547 20.537 181.621 20.6112 181.671 20.7102C181.721 20.8338 181.746 20.9328 181.746 21.0565C181.746 21.2543 181.671 21.4522 181.547 21.6254C181.398 21.7985 181.199 21.8975 180.876 21.8975Z" fill="white"/>
</g>
<defs>
<clipPath id="clip0_5117_37606">
<rect width="185" height="82" fill="white" transform="translate(0.5 0.5)"/>
</clipPath>
</defs>
</svg>
