<svg width="1728" height="687" viewBox="0 0 1728 687" fill="none" xmlns="http://www.w3.org/2000/svg">
<g opacity="0.05">
<path fill-rule="evenodd" clip-rule="evenodd" d="M451.387 104.076H380.636C347.69 104.076 323.692 133.519 321.323 136.543L301.038 160.608L238.639 86.5893L273.656 45.0489L273.943 44.6969C274.13 44.444 293.754 19.7749 317.676 19.7749H352.01H352.109H388.404C390.189 19.7749 391.379 18.5871 391.379 16.8053V2.96953C391.379 1.18781 390.189 0 388.404 0H383.126H317.676C284.73 0 260.742 29.4423 258.362 32.4669L225.681 71.2357L193 32.4669C190.62 29.4423 166.632 0 133.686 0H62.9466C61.1616 0 59.9716 1.18781 59.9716 2.96953V16.8273C59.9716 18.609 61.1616 19.7969 62.9466 19.7969H133.686C157.806 19.7969 177.243 44.4879 177.419 44.7189L177.552 44.8949L212.712 86.6113L150.313 160.63L130.028 136.565C127.659 133.552 103.661 104.098 70.7148 104.098H5.26399H-0.0249681C-1.80999 104.098 -3 105.286 -3 107.068V120.926C-3 122.708 -1.80999 123.895 -0.0249681 123.895H36.2705H36.3807H70.7258C94.8456 123.895 114.282 148.586 114.459 148.817L114.591 148.993L137.367 176.005L114.745 202.841L114.459 203.193C114.271 203.446 94.6472 228.115 70.7258 228.115H36.557C36.5312 228.115 36.5064 228.113 36.4823 228.11C36.4712 228.109 36.4603 228.108 36.4496 228.106L36.4276 228.103C36.3891 228.098 36.3518 228.093 36.3145 228.093H0.0191154C-1.76591 228.093 -2.95593 229.281 -2.95593 231.062V244.92C-2.95593 246.702 -1.76591 247.89 0.0191154 247.89H5.275V247.912H70.7258C103.672 247.912 127.659 218.469 130.039 215.445L150.324 191.381L212.723 265.399L177.706 306.939L177.419 307.291C177.232 307.544 157.608 332.213 133.686 332.213H62.9466C61.1616 332.213 59.9716 333.401 59.9716 335.183V337.605V349.041V351.463C59.9716 353.245 61.1616 354.433 62.9466 354.433H133.686C157.806 354.433 177.243 379.124 177.419 379.355L177.552 379.531L212.712 421.247L150.313 495.265L130.028 471.201C127.659 468.188 103.661 438.734 70.7148 438.734H5.26399H-0.0249681C-1.80999 438.734 -3 439.922 -3 441.704V455.562C-3 457.343 -1.80999 458.531 -0.0249681 458.531H36.2705H36.3807H70.7258C94.8456 458.531 114.282 483.222 114.459 483.453L114.591 483.629L137.367 510.641L114.745 537.477L114.459 537.828C114.271 538.081 94.6472 562.751 70.7258 562.751H36.557C36.5312 562.751 36.5064 562.749 36.4823 562.746C36.4754 562.745 36.4686 562.744 36.4619 562.744L36.4496 562.742L36.4276 562.739C36.3891 562.734 36.3518 562.729 36.3145 562.729H0.0191154C-1.76591 562.729 -2.95593 563.916 -2.95593 565.698V579.556C-2.95593 581.338 -1.76591 582.525 0.0191154 582.525H5.275V582.547H70.7258C103.672 582.547 127.659 553.105 130.039 550.081L150.324 526.016L212.723 600.035L177.706 641.575L177.419 641.927C177.232 642.18 157.608 666.849 133.686 666.849H62.9466C61.1616 666.849 59.9716 668.037 59.9716 669.819V683.676C59.9716 685.458 61.1616 686.646 62.9466 686.646H133.686C166.632 686.646 190.62 657.215 193 654.179L225.681 615.41L258.362 654.179C260.742 657.204 284.73 686.646 317.676 686.646H388.371C390.156 686.646 391.346 685.458 391.346 683.676V669.819C391.346 668.037 390.156 666.849 388.371 666.849H317.676C293.556 666.849 274.119 642.158 273.943 641.927L273.81 641.751L238.65 600.035L336.628 483.805L336.892 483.475C337.091 483.222 356.516 458.542 380.636 458.542H451.387C451.55 458.542 451.708 458.532 451.86 458.513C452.013 458.532 452.171 458.542 452.334 458.542H523.085C547.205 458.542 566.631 483.222 566.829 483.475L567.093 483.805L665.071 600.035L629.911 641.751L629.778 641.927C629.602 642.158 610.165 666.849 586.045 666.849H515.35C513.565 666.849 512.375 668.037 512.375 669.819V683.676C512.375 685.458 513.565 686.646 515.35 686.646H586.045C618.991 686.646 642.979 657.204 645.359 654.179L678.04 615.41L710.721 654.179C713.101 657.215 737.089 686.646 770.035 686.646H840.774C842.56 686.646 843.75 685.458 843.75 683.676V669.819C843.75 668.037 842.56 666.849 840.774 666.849H770.035C746.113 666.849 726.489 642.18 726.302 641.927L726.015 641.575L690.998 600.035L753.397 526.016L773.682 550.081C776.062 553.105 800.05 582.547 832.995 582.547H873.553H898.446H939.004C971.95 582.547 995.937 553.105 998.317 550.081L1018.6 526.016L1081 600.035L1045.98 641.575L1045.7 641.927C1045.51 642.18 1025.89 666.849 1001.96 666.849H931.225C929.44 666.849 928.25 668.037 928.25 669.819V683.676C928.25 685.458 929.44 686.646 931.225 686.646H1001.96C1034.91 686.646 1058.9 657.215 1061.28 654.179L1093.96 615.41L1126.64 654.179C1129.02 657.204 1153.01 686.646 1185.95 686.646H1256.65C1258.43 686.646 1259.62 685.458 1259.62 683.676V669.819C1259.62 668.037 1258.43 666.849 1256.65 666.849H1185.95C1161.83 666.849 1142.4 642.158 1142.22 641.927L1142.09 641.751L1106.93 600.035L1204.91 483.805L1205.17 483.475C1205.37 483.222 1224.79 458.542 1248.91 458.542H1319.67C1319.83 458.542 1319.99 458.532 1320.14 458.513C1320.29 458.532 1320.45 458.542 1320.61 458.542H1391.36C1415.48 458.542 1434.91 483.222 1435.11 483.475L1435.37 483.805L1533.35 600.035L1498.19 641.751L1498.06 641.927C1497.88 642.158 1478.44 666.849 1454.32 666.849H1383.63C1381.84 666.849 1380.65 668.037 1380.65 669.819V683.676C1380.65 685.458 1381.84 686.646 1383.63 686.646H1454.32C1487.27 686.646 1511.26 657.204 1513.64 654.179L1546.32 615.41L1579 654.179C1581.38 657.215 1605.37 686.646 1638.31 686.646H1709.05C1710.84 686.646 1712.03 685.458 1712.03 683.676V669.819C1712.03 668.037 1710.84 666.849 1709.05 666.849H1638.31C1614.39 666.849 1594.77 642.18 1594.58 641.927L1594.29 641.575L1559.28 600.035L1621.67 526.016L1641.96 550.081C1644.34 553.105 1668.33 582.547 1701.27 582.547H1766.72V582.525H1771.98C1773.77 582.525 1774.96 581.338 1774.96 579.556V565.698C1774.96 563.916 1773.77 562.729 1771.98 562.729H1735.68C1735.61 562.729 1735.53 562.751 1735.44 562.751H1701.27C1677.35 562.751 1657.73 538.082 1657.54 537.829L1657.25 537.477L1634.63 510.641L1657.41 483.629L1657.54 483.453C1657.72 483.222 1677.15 458.531 1701.27 458.531H1735.62H1735.73H1772.02C1773.81 458.531 1775 457.343 1775 455.562V441.704C1775 439.922 1773.81 438.734 1772.02 438.734H1766.74H1701.28C1668.34 438.734 1644.34 468.188 1641.97 471.201L1621.69 495.265L1559.29 421.247L1594.45 379.531L1594.58 379.355C1594.76 379.124 1614.19 354.433 1638.31 354.433H1709.05C1710.84 354.433 1712.03 353.245 1712.03 351.463V349.041V337.605V335.183C1712.03 333.401 1710.84 332.213 1709.05 332.213H1638.31C1614.39 332.213 1594.77 307.544 1594.58 307.291L1594.29 306.939L1559.28 265.399L1621.67 191.381L1641.96 215.445C1644.34 218.469 1668.33 247.912 1701.27 247.912H1766.72V247.89H1771.98C1773.77 247.89 1774.96 246.702 1774.96 244.92V231.062C1774.96 229.281 1773.77 228.093 1771.98 228.093H1735.68C1735.65 228.093 1735.61 228.099 1735.56 228.104C1735.54 228.108 1735.52 228.111 1735.49 228.113C1735.48 228.114 1735.46 228.115 1735.44 228.115H1701.27C1677.35 228.115 1657.73 203.446 1657.54 203.193L1657.25 202.841L1634.63 176.005L1657.41 148.993L1657.54 148.818C1657.72 148.587 1677.15 123.895 1701.27 123.895H1735.62H1735.73H1772.02C1773.81 123.895 1775 122.708 1775 120.926V107.068C1775 105.286 1773.81 104.099 1772.02 104.099H1766.74H1701.28C1668.34 104.099 1644.34 133.552 1641.97 136.565L1621.69 160.63L1559.29 86.6114L1594.45 44.895L1594.58 44.719C1594.76 44.488 1614.19 19.797 1638.31 19.797H1709.05C1710.84 19.797 1712.03 18.6091 1712.03 16.8274V2.96962C1712.03 1.1879 1710.84 9.23276e-05 1709.05 9.23276e-05H1638.31C1605.37 9.23276e-05 1581.38 29.4424 1579 32.4669L1546.32 71.2358L1513.64 32.4669C1511.26 29.4424 1487.27 9.23276e-05 1454.32 9.23276e-05H1388.87H1383.59C1381.81 9.23276e-05 1380.62 1.1879 1380.62 2.96962V16.8054C1380.62 18.5871 1381.81 19.775 1383.59 19.775H1419.89H1419.99H1454.32C1478.25 19.775 1497.87 44.444 1498.06 44.697L1498.34 45.049L1533.36 86.5894L1470.96 160.608L1450.68 136.543C1448.31 133.519 1424.31 104.077 1391.36 104.077H1320.61V104.11C1320.45 104.11 1320.29 104.119 1320.14 104.139C1320.06 104.128 1319.97 104.121 1319.89 104.116C1319.81 104.112 1319.74 104.11 1319.67 104.11V104.077H1248.91C1215.97 104.077 1191.97 133.519 1189.6 136.543L1169.32 160.608L1106.92 86.5894L1141.93 45.049L1142.22 44.697C1142.41 44.444 1162.03 19.775 1185.95 19.775H1220.29H1220.39H1256.68C1258.47 19.775 1259.66 18.5871 1259.66 16.8054V2.96962C1259.66 1.1879 1258.47 9.23276e-05 1256.68 9.23276e-05H1251.4H1185.95C1153.01 9.23276e-05 1129.02 29.4424 1126.64 32.4669L1093.96 71.2358L1061.28 32.4669C1058.9 29.4424 1034.91 9.23276e-05 1001.96 9.23276e-05H931.225C929.44 9.23276e-05 928.25 1.1879 928.25 2.96962V16.8274C928.25 18.6091 929.44 19.797 931.225 19.797H1001.96C1026.08 19.797 1045.52 44.488 1045.7 44.719L1045.83 44.895L1080.99 86.6114L1018.59 160.63L998.306 136.565C995.937 133.552 971.939 104.099 938.993 104.099H903.746H898.457H873.542H868.253H833.006C800.061 104.099 776.062 133.552 773.693 136.565L753.408 160.63L691.009 86.6114L726.169 44.895L726.302 44.719C726.478 44.488 745.915 19.797 770.035 19.797H840.774C842.56 19.797 843.75 18.6091 843.75 16.8274V2.96962C843.75 1.1879 842.56 9.23276e-05 840.774 9.23276e-05H770.035C737.089 9.23276e-05 713.101 29.4424 710.721 32.4669L678.04 71.2358L645.359 32.4669C642.979 29.4424 618.991 9.23276e-05 586.045 9.23276e-05H520.595H515.317C513.532 9.23276e-05 512.342 1.1879 512.342 2.96962V16.8054C512.342 18.5871 513.532 19.775 515.317 19.775H551.612H551.711H586.045C609.967 19.775 629.591 44.444 629.778 44.697L630.065 45.049L665.082 86.5894L602.684 160.608L582.398 136.543C580.029 133.519 556.031 104.077 523.085 104.077H452.334V104.11C452.171 104.11 452.013 104.119 451.861 104.139C451.708 104.119 451.55 104.109 451.387 104.109V104.076ZM1607.08 343.324C1591.02 334.386 1580.53 321.497 1579 319.543L1546.32 280.775L1513.64 319.543C1512.1 321.49 1501.62 334.383 1485.56 343.323C1501.62 352.263 1512.1 365.156 1513.64 367.103L1546.32 405.871L1579 367.103C1580.53 365.156 1591.02 352.265 1607.08 343.324ZM1380.65 337.105V335.183C1380.65 333.401 1381.84 332.213 1383.63 332.213H1454.32C1478.44 332.213 1497.88 307.522 1498.06 307.291L1498.19 307.115L1533.35 265.399L1435.37 149.169L1435.11 148.839C1434.91 148.587 1415.48 123.906 1391.36 123.906H1320.61C1320.45 123.906 1320.29 123.897 1320.14 123.877C1319.99 123.897 1319.83 123.906 1319.67 123.906H1248.91C1224.79 123.906 1205.37 148.587 1205.17 148.839L1204.91 149.169L1106.93 265.399L1142.09 307.115L1142.22 307.291C1142.4 307.522 1161.83 332.213 1185.95 332.213H1256.65C1258.43 332.213 1259.62 333.401 1259.62 335.183V337.104C1259.65 337.265 1259.66 337.432 1259.66 337.605V351.441C1259.66 353.223 1258.47 354.411 1256.68 354.411H1220.39H1220.29H1185.95C1162.03 354.411 1142.41 379.08 1142.22 379.333L1141.93 379.685L1106.92 421.225L1169.32 495.243L1189.6 471.179C1191.97 468.155 1215.97 438.712 1248.91 438.712H1319.67V438.745C1319.83 438.745 1319.99 438.755 1320.14 438.775C1320.29 438.755 1320.45 438.745 1320.61 438.745V438.712H1391.36C1424.31 438.712 1448.31 468.155 1450.68 471.179L1470.96 495.243L1533.36 421.225L1498.34 379.685L1498.06 379.333C1497.87 379.08 1478.25 354.411 1454.32 354.411H1419.99H1419.89H1383.59C1381.81 354.411 1380.62 353.223 1380.62 351.441V337.605C1380.62 337.433 1380.63 337.266 1380.65 337.105ZM1154.72 343.323C1138.66 334.383 1128.17 321.49 1126.64 319.543L1093.96 280.775L1061.28 319.543C1059.75 321.497 1049.26 334.386 1033.2 343.324C1049.26 352.265 1059.75 365.156 1061.28 367.103L1093.96 405.871L1126.64 367.103C1128.17 365.156 1138.66 352.263 1154.72 343.323ZM928.25 337.605V335.183C928.25 333.401 929.44 332.213 931.225 332.213H1001.96C1025.89 332.213 1045.51 307.544 1045.7 307.291L1045.98 306.939L1081 265.399L1018.6 191.381L998.317 215.445C995.937 218.469 971.95 247.912 939.004 247.912H898.446H873.553H832.995C800.05 247.912 776.062 218.469 773.682 215.445L753.397 191.381L690.998 265.399L726.015 306.939L726.302 307.291C726.489 307.544 746.113 332.213 770.035 332.213H840.774C842.56 332.213 843.75 333.401 843.75 335.183V337.605V349.041V351.463C843.75 353.245 842.56 354.433 840.774 354.433H770.035C745.915 354.433 726.478 379.124 726.302 379.355L726.169 379.531L691.009 421.247L753.408 495.265L773.693 471.201C776.062 468.188 800.061 438.734 833.006 438.734H868.253H873.542H898.457H903.746H938.993C971.939 438.734 995.937 468.188 998.306 471.201L1018.59 495.265L1080.99 421.247L1045.83 379.531L1045.7 379.355C1045.52 379.124 1026.08 354.433 1001.96 354.433H931.225C929.44 354.433 928.25 353.245 928.25 351.463V349.041V337.605ZM738.799 343.324C722.737 334.386 712.253 321.497 710.721 319.543L678.04 280.775L645.359 319.543C643.827 321.49 633.342 334.383 617.279 343.323C633.342 352.263 643.827 365.156 645.359 367.103L678.04 405.871L710.721 367.103C712.253 365.156 722.737 352.265 738.799 343.324ZM512.375 337.104V335.183C512.375 333.401 513.565 332.213 515.35 332.213H586.045C610.165 332.213 629.602 307.522 629.778 307.291L629.911 307.115L665.071 265.399L567.093 149.169L566.829 148.839C566.631 148.587 547.205 123.906 523.085 123.906H452.334C452.171 123.906 452.013 123.897 451.86 123.877C451.708 123.896 451.55 123.906 451.387 123.906H380.636C356.516 123.906 337.091 148.586 336.892 148.839L336.628 149.169L238.65 265.399L273.81 307.115L273.943 307.291C274.119 307.522 293.556 332.213 317.676 332.213H388.371C390.156 332.213 391.346 333.401 391.346 335.183V337.104C391.368 337.265 391.379 337.432 391.379 337.605V351.441C391.379 353.223 390.189 354.411 388.404 354.411H352.109H352.01H317.676C293.754 354.411 274.13 379.08 273.943 379.333L273.656 379.685L238.639 421.225L301.038 495.243L321.323 471.179C323.692 468.155 347.69 438.712 380.636 438.712H451.387V438.745C451.55 438.745 451.708 438.755 451.861 438.774C452.013 438.755 452.171 438.745 452.334 438.745V438.712H523.085C556.031 438.712 580.029 468.155 582.398 471.179L602.684 495.243L665.082 421.225L630.065 379.685L629.778 379.333C629.591 379.08 609.967 354.411 586.045 354.411H551.711H551.612H515.317C513.532 354.411 512.342 353.223 512.342 351.441V337.605C512.342 337.433 512.353 337.265 512.375 337.104ZM286.442 343.323C270.379 334.383 259.894 321.49 258.362 319.543L225.681 280.774L193 319.543C191.468 321.497 180.984 334.386 164.922 343.324C180.984 352.265 191.468 365.156 193 367.103L225.681 405.871L258.362 367.103C259.894 365.156 270.379 352.263 286.442 343.323ZM903.702 228.093H868.297H867.407C867.329 228.093 867.252 228.115 867.164 228.115H832.995C809.074 228.115 789.45 203.446 789.262 203.193L788.976 202.841L766.354 176.005L789.13 148.993L789.262 148.818C789.439 148.587 808.875 123.895 832.995 123.895H867.34H867.451H868.253H903.746H904.548H904.659H939.004C963.124 123.895 982.56 148.587 982.737 148.818L982.869 148.993L1005.64 176.005L983.023 202.841L982.737 203.193C982.549 203.446 962.925 228.115 939.004 228.115H904.835C904.747 228.115 904.67 228.093 904.593 228.093H903.702ZM225.67 250.001L163.271 175.983L225.67 101.965L288.069 175.983L225.67 250.001ZM451.384 228.093H380.633C356.514 228.093 337.077 203.402 336.9 203.171L336.537 203.457L323.7 218.261C330.873 226.4 352.47 247.89 380.633 247.89H451.384C451.548 247.89 451.707 247.88 451.861 247.861C452.014 247.88 452.173 247.89 452.337 247.89H523.088C551.252 247.89 572.848 226.4 580.021 218.261L567.185 203.457L566.821 203.171C566.645 203.402 547.208 228.093 523.088 228.093H452.337C452.173 228.093 452.014 228.103 451.861 228.123C451.814 228.117 451.768 228.112 451.72 228.108C451.611 228.098 451.499 228.093 451.384 228.093ZM678.051 250.001L740.45 175.983L678.051 101.965L615.652 175.983L678.051 250.001ZM1248.91 228.093H1319.66C1319.72 228.093 1319.78 228.095 1319.83 228.097C1319.94 228.102 1320.04 228.11 1320.14 228.123C1320.29 228.103 1320.45 228.093 1320.61 228.093H1391.37C1415.49 228.093 1434.92 203.402 1435.1 203.171L1435.46 203.457L1448.3 218.261C1441.13 226.4 1419.53 247.89 1391.37 247.89H1320.61C1320.45 247.89 1320.29 247.88 1320.14 247.861C1319.98 247.88 1319.83 247.89 1319.66 247.89H1248.91C1220.75 247.89 1199.15 226.4 1191.98 218.261L1204.81 203.457L1205.18 203.171C1205.35 203.402 1224.79 228.093 1248.91 228.093ZM1093.95 250.001L1031.55 175.983L1093.95 101.965L1156.35 175.983L1093.95 250.001ZM1546.33 250.001L1608.73 175.983L1546.33 101.965L1483.93 175.983L1546.33 250.001ZM903.702 562.729H868.297H867.407C867.369 562.729 867.332 562.734 867.293 562.739C867.252 562.745 867.21 562.751 867.164 562.751H832.995C809.074 562.751 789.45 538.082 789.262 537.829L788.976 537.477L766.354 510.641L789.13 483.629L789.262 483.453C789.439 483.222 808.875 458.531 832.995 458.531H867.34H867.451H868.253H903.746H904.548H904.659H939.004C963.124 458.531 982.56 483.222 982.737 483.453L982.869 483.629L1005.64 510.641L983.023 537.477L982.737 537.829C982.549 538.082 962.925 562.751 939.004 562.751H904.835C904.789 562.751 904.747 562.745 904.706 562.739C904.683 562.736 904.66 562.733 904.638 562.731C904.622 562.729 904.607 562.729 904.593 562.729H903.702ZM225.67 584.637L163.271 510.619L225.67 436.601L288.069 510.619L225.67 584.637ZM451.384 562.729H380.633C356.514 562.729 337.077 538.038 336.9 537.807L336.537 538.093L323.7 552.897C330.873 561.036 352.47 582.526 380.633 582.526H451.384C451.548 582.526 451.707 582.516 451.861 582.497C451.941 582.507 452.022 582.514 452.105 582.519C452.181 582.524 452.259 582.526 452.337 582.526H523.088C551.252 582.526 572.848 561.036 580.021 552.897L567.185 538.093L566.821 537.807C566.645 538.038 547.208 562.729 523.088 562.729H452.337C452.173 562.729 452.014 562.739 451.861 562.759C451.707 562.739 451.548 562.729 451.384 562.729ZM678.051 584.637L740.45 510.619L678.051 436.601L615.652 510.619L678.051 584.637ZM1248.91 562.729H1319.66C1319.74 562.729 1319.82 562.732 1319.9 562.736C1319.98 562.741 1320.06 562.749 1320.14 562.759C1320.29 562.739 1320.45 562.729 1320.61 562.729H1391.37C1415.49 562.729 1434.92 538.038 1435.1 537.807L1435.46 538.093L1448.3 552.897C1441.13 561.036 1419.53 582.526 1391.37 582.526H1320.61C1320.53 582.526 1320.46 582.524 1320.38 582.519C1320.3 582.514 1320.22 582.507 1320.14 582.497C1319.98 582.516 1319.83 582.526 1319.66 582.526H1248.91C1220.75 582.526 1199.15 561.036 1191.98 552.897L1204.81 538.093L1205.18 537.807C1205.35 538.038 1224.79 562.729 1248.91 562.729ZM1093.95 584.637L1031.55 510.619L1093.95 436.601L1156.35 510.619L1093.95 584.637ZM1546.33 584.637L1608.73 510.619L1546.33 436.601L1483.93 510.619L1546.33 584.637Z" fill="#DEDEDE"/>
<path fill-rule="evenodd" clip-rule="evenodd" d="M451.387 104.076H380.636C347.69 104.076 323.692 133.519 321.323 136.543L301.038 160.608L238.639 86.5893L273.656 45.0489L273.943 44.6969C274.13 44.444 293.754 19.7749 317.676 19.7749H352.01H352.109H388.404C390.189 19.7749 391.379 18.5871 391.379 16.8053V2.96953C391.379 1.18781 390.189 0 388.404 0H383.126H317.676C284.73 0 260.742 29.4423 258.362 32.4669L225.681 71.2357L193 32.4669C190.62 29.4423 166.632 0 133.686 0H62.9466C61.1616 0 59.9716 1.18781 59.9716 2.96953V16.8273C59.9716 18.609 61.1616 19.7969 62.9466 19.7969H133.686C157.806 19.7969 177.243 44.4879 177.419 44.7189L177.552 44.8949L212.712 86.6113L150.313 160.63L130.028 136.565C127.659 133.552 103.661 104.098 70.7148 104.098H5.26399H-0.0249681C-1.80999 104.098 -3 105.286 -3 107.068V120.926C-3 122.708 -1.80999 123.895 -0.0249681 123.895H36.2705H36.3807H70.7258C94.8456 123.895 114.282 148.586 114.459 148.817L114.591 148.993L137.367 176.005L114.745 202.841L114.459 203.193C114.271 203.446 94.6472 228.115 70.7258 228.115H36.557C36.5312 228.115 36.5064 228.113 36.4823 228.11C36.4712 228.109 36.4603 228.108 36.4496 228.106L36.4276 228.103C36.3891 228.098 36.3518 228.093 36.3145 228.093H0.0191154C-1.76591 228.093 -2.95593 229.281 -2.95593 231.062V244.92C-2.95593 246.702 -1.76591 247.89 0.0191154 247.89H5.275V247.912H70.7258C103.672 247.912 127.659 218.469 130.039 215.445L150.324 191.381L212.723 265.399L177.706 306.939L177.419 307.291C177.232 307.544 157.608 332.213 133.686 332.213H62.9466C61.1616 332.213 59.9716 333.401 59.9716 335.183V337.605V349.041V351.463C59.9716 353.245 61.1616 354.433 62.9466 354.433H133.686C157.806 354.433 177.243 379.124 177.419 379.355L177.552 379.531L212.712 421.247L150.313 495.265L130.028 471.201C127.659 468.188 103.661 438.734 70.7148 438.734H5.26399H-0.0249681C-1.80999 438.734 -3 439.922 -3 441.704V455.562C-3 457.343 -1.80999 458.531 -0.0249681 458.531H36.2705H36.3807H70.7258C94.8456 458.531 114.282 483.222 114.459 483.453L114.591 483.629L137.367 510.641L114.745 537.477L114.459 537.828C114.271 538.081 94.6472 562.751 70.7258 562.751H36.557C36.5312 562.751 36.5064 562.749 36.4823 562.746C36.4754 562.745 36.4686 562.744 36.4619 562.744L36.4496 562.742L36.4276 562.739C36.3891 562.734 36.3518 562.729 36.3145 562.729H0.0191154C-1.76591 562.729 -2.95593 563.916 -2.95593 565.698V579.556C-2.95593 581.338 -1.76591 582.525 0.0191154 582.525H5.275V582.547H70.7258C103.672 582.547 127.659 553.105 130.039 550.081L150.324 526.016L212.723 600.035L177.706 641.575L177.419 641.927C177.232 642.18 157.608 666.849 133.686 666.849H62.9466C61.1616 666.849 59.9716 668.037 59.9716 669.819V683.676C59.9716 685.458 61.1616 686.646 62.9466 686.646H133.686C166.632 686.646 190.62 657.215 193 654.179L225.681 615.41L258.362 654.179C260.742 657.204 284.73 686.646 317.676 686.646H388.371C390.156 686.646 391.346 685.458 391.346 683.676V669.819C391.346 668.037 390.156 666.849 388.371 666.849H317.676C293.556 666.849 274.119 642.158 273.943 641.927L273.81 641.751L238.65 600.035L336.628 483.805L336.892 483.475C337.091 483.222 356.516 458.542 380.636 458.542H451.387C451.55 458.542 451.708 458.532 451.86 458.513C452.013 458.532 452.171 458.542 452.334 458.542H523.085C547.205 458.542 566.631 483.222 566.829 483.475L567.093 483.805L665.071 600.035L629.911 641.751L629.778 641.927C629.602 642.158 610.165 666.849 586.045 666.849H515.35C513.565 666.849 512.375 668.037 512.375 669.819V683.676C512.375 685.458 513.565 686.646 515.35 686.646H586.045C618.991 686.646 642.979 657.204 645.359 654.179L678.04 615.41L710.721 654.179C713.101 657.215 737.089 686.646 770.035 686.646H840.774C842.56 686.646 843.75 685.458 843.75 683.676V669.819C843.75 668.037 842.56 666.849 840.774 666.849H770.035C746.113 666.849 726.489 642.18 726.302 641.927L726.015 641.575L690.998 600.035L753.397 526.016L773.682 550.081C776.062 553.105 800.05 582.547 832.995 582.547H873.553H898.446H939.004C971.95 582.547 995.937 553.105 998.317 550.081L1018.6 526.016L1081 600.035L1045.98 641.575L1045.7 641.927C1045.51 642.18 1025.89 666.849 1001.96 666.849H931.225C929.44 666.849 928.25 668.037 928.25 669.819V683.676C928.25 685.458 929.44 686.646 931.225 686.646H1001.96C1034.91 686.646 1058.9 657.215 1061.28 654.179L1093.96 615.41L1126.64 654.179C1129.02 657.204 1153.01 686.646 1185.95 686.646H1256.65C1258.43 686.646 1259.62 685.458 1259.62 683.676V669.819C1259.62 668.037 1258.43 666.849 1256.65 666.849H1185.95C1161.83 666.849 1142.4 642.158 1142.22 641.927L1142.09 641.751L1106.93 600.035L1204.91 483.805L1205.17 483.475C1205.37 483.222 1224.79 458.542 1248.91 458.542H1319.67C1319.83 458.542 1319.99 458.532 1320.14 458.513C1320.29 458.532 1320.45 458.542 1320.61 458.542H1391.36C1415.48 458.542 1434.91 483.222 1435.11 483.475L1435.37 483.805L1533.35 600.035L1498.19 641.751L1498.06 641.927C1497.88 642.158 1478.44 666.849 1454.32 666.849H1383.63C1381.84 666.849 1380.65 668.037 1380.65 669.819V683.676C1380.65 685.458 1381.84 686.646 1383.63 686.646H1454.32C1487.27 686.646 1511.26 657.204 1513.64 654.179L1546.32 615.41L1579 654.179C1581.38 657.215 1605.37 686.646 1638.31 686.646H1709.05C1710.84 686.646 1712.03 685.458 1712.03 683.676V669.819C1712.03 668.037 1710.84 666.849 1709.05 666.849H1638.31C1614.39 666.849 1594.77 642.18 1594.58 641.927L1594.29 641.575L1559.28 600.035L1621.67 526.016L1641.96 550.081C1644.34 553.105 1668.33 582.547 1701.27 582.547H1766.72V582.525H1771.98C1773.77 582.525 1774.96 581.338 1774.96 579.556V565.698C1774.96 563.916 1773.77 562.729 1771.98 562.729H1735.68C1735.61 562.729 1735.53 562.751 1735.44 562.751H1701.27C1677.35 562.751 1657.73 538.082 1657.54 537.829L1657.25 537.477L1634.63 510.641L1657.41 483.629L1657.54 483.453C1657.72 483.222 1677.15 458.531 1701.27 458.531H1735.62H1735.73H1772.02C1773.81 458.531 1775 457.343 1775 455.562V441.704C1775 439.922 1773.81 438.734 1772.02 438.734H1766.74H1701.28C1668.34 438.734 1644.34 468.188 1641.97 471.201L1621.69 495.265L1559.29 421.247L1594.45 379.531L1594.58 379.355C1594.76 379.124 1614.19 354.433 1638.31 354.433H1709.05C1710.84 354.433 1712.03 353.245 1712.03 351.463V349.041V337.605V335.183C1712.03 333.401 1710.84 332.213 1709.05 332.213H1638.31C1614.39 332.213 1594.77 307.544 1594.58 307.291L1594.29 306.939L1559.28 265.399L1621.67 191.381L1641.96 215.445C1644.34 218.469 1668.33 247.912 1701.27 247.912H1766.72V247.89H1771.98C1773.77 247.89 1774.96 246.702 1774.96 244.92V231.062C1774.96 229.281 1773.77 228.093 1771.98 228.093H1735.68C1735.65 228.093 1735.61 228.099 1735.56 228.104C1735.54 228.108 1735.52 228.111 1735.49 228.113C1735.48 228.114 1735.46 228.115 1735.44 228.115H1701.27C1677.35 228.115 1657.73 203.446 1657.54 203.193L1657.25 202.841L1634.63 176.005L1657.41 148.993L1657.54 148.818C1657.72 148.587 1677.15 123.895 1701.27 123.895H1735.62H1735.73H1772.02C1773.81 123.895 1775 122.708 1775 120.926V107.068C1775 105.286 1773.81 104.099 1772.02 104.099H1766.74H1701.28C1668.34 104.099 1644.34 133.552 1641.97 136.565L1621.69 160.63L1559.29 86.6114L1594.45 44.895L1594.58 44.719C1594.76 44.488 1614.19 19.797 1638.31 19.797H1709.05C1710.84 19.797 1712.03 18.6091 1712.03 16.8274V2.96962C1712.03 1.1879 1710.84 9.23276e-05 1709.05 9.23276e-05H1638.31C1605.37 9.23276e-05 1581.38 29.4424 1579 32.4669L1546.32 71.2358L1513.64 32.4669C1511.26 29.4424 1487.27 9.23276e-05 1454.32 9.23276e-05H1388.87H1383.59C1381.81 9.23276e-05 1380.62 1.1879 1380.62 2.96962V16.8054C1380.62 18.5871 1381.81 19.775 1383.59 19.775H1419.89H1419.99H1454.32C1478.25 19.775 1497.87 44.444 1498.06 44.697L1498.34 45.049L1533.36 86.5894L1470.96 160.608L1450.68 136.543C1448.31 133.519 1424.31 104.077 1391.36 104.077H1320.61V104.11C1320.45 104.11 1320.29 104.119 1320.14 104.139C1320.06 104.128 1319.97 104.121 1319.89 104.116C1319.81 104.112 1319.74 104.11 1319.67 104.11V104.077H1248.91C1215.97 104.077 1191.97 133.519 1189.6 136.543L1169.32 160.608L1106.92 86.5894L1141.93 45.049L1142.22 44.697C1142.41 44.444 1162.03 19.775 1185.95 19.775H1220.29H1220.39H1256.68C1258.47 19.775 1259.66 18.5871 1259.66 16.8054V2.96962C1259.66 1.1879 1258.47 9.23276e-05 1256.68 9.23276e-05H1251.4H1185.95C1153.01 9.23276e-05 1129.02 29.4424 1126.64 32.4669L1093.96 71.2358L1061.28 32.4669C1058.9 29.4424 1034.91 9.23276e-05 1001.96 9.23276e-05H931.225C929.44 9.23276e-05 928.25 1.1879 928.25 2.96962V16.8274C928.25 18.6091 929.44 19.797 931.225 19.797H1001.96C1026.08 19.797 1045.52 44.488 1045.7 44.719L1045.83 44.895L1080.99 86.6114L1018.59 160.63L998.306 136.565C995.937 133.552 971.939 104.099 938.993 104.099H903.746H898.457H873.542H868.253H833.006C800.061 104.099 776.062 133.552 773.693 136.565L753.408 160.63L691.009 86.6114L726.169 44.895L726.302 44.719C726.478 44.488 745.915 19.797 770.035 19.797H840.774C842.56 19.797 843.75 18.6091 843.75 16.8274V2.96962C843.75 1.1879 842.56 9.23276e-05 840.774 9.23276e-05H770.035C737.089 9.23276e-05 713.101 29.4424 710.721 32.4669L678.04 71.2358L645.359 32.4669C642.979 29.4424 618.991 9.23276e-05 586.045 9.23276e-05H520.595H515.317C513.532 9.23276e-05 512.342 1.1879 512.342 2.96962V16.8054C512.342 18.5871 513.532 19.775 515.317 19.775H551.612H551.711H586.045C609.967 19.775 629.591 44.444 629.778 44.697L630.065 45.049L665.082 86.5894L602.684 160.608L582.398 136.543C580.029 133.519 556.031 104.077 523.085 104.077H452.334V104.11C452.171 104.11 452.013 104.119 451.861 104.139C451.708 104.119 451.55 104.109 451.387 104.109V104.076ZM1607.08 343.324C1591.02 334.386 1580.53 321.497 1579 319.543L1546.32 280.775L1513.64 319.543C1512.1 321.49 1501.62 334.383 1485.56 343.323C1501.62 352.263 1512.1 365.156 1513.64 367.103L1546.32 405.871L1579 367.103C1580.53 365.156 1591.02 352.265 1607.08 343.324ZM1380.65 337.105V335.183C1380.65 333.401 1381.84 332.213 1383.63 332.213H1454.32C1478.44 332.213 1497.88 307.522 1498.06 307.291L1498.19 307.115L1533.35 265.399L1435.37 149.169L1435.11 148.839C1434.91 148.587 1415.48 123.906 1391.36 123.906H1320.61C1320.45 123.906 1320.29 123.897 1320.14 123.877C1319.99 123.897 1319.83 123.906 1319.67 123.906H1248.91C1224.79 123.906 1205.37 148.587 1205.17 148.839L1204.91 149.169L1106.93 265.399L1142.09 307.115L1142.22 307.291C1142.4 307.522 1161.83 332.213 1185.95 332.213H1256.65C1258.43 332.213 1259.62 333.401 1259.62 335.183V337.104C1259.65 337.265 1259.66 337.432 1259.66 337.605V351.441C1259.66 353.223 1258.47 354.411 1256.68 354.411H1220.39H1220.29H1185.95C1162.03 354.411 1142.41 379.08 1142.22 379.333L1141.93 379.685L1106.92 421.225L1169.32 495.243L1189.6 471.179C1191.97 468.155 1215.97 438.712 1248.91 438.712H1319.67V438.745C1319.83 438.745 1319.99 438.755 1320.14 438.775C1320.29 438.755 1320.45 438.745 1320.61 438.745V438.712H1391.36C1424.31 438.712 1448.31 468.155 1450.68 471.179L1470.96 495.243L1533.36 421.225L1498.34 379.685L1498.06 379.333C1497.87 379.08 1478.25 354.411 1454.32 354.411H1419.99H1419.89H1383.59C1381.81 354.411 1380.62 353.223 1380.62 351.441V337.605C1380.62 337.433 1380.63 337.266 1380.65 337.105ZM1154.72 343.323C1138.66 334.383 1128.17 321.49 1126.64 319.543L1093.96 280.775L1061.28 319.543C1059.75 321.497 1049.26 334.386 1033.2 343.324C1049.26 352.265 1059.75 365.156 1061.28 367.103L1093.96 405.871L1126.64 367.103C1128.17 365.156 1138.66 352.263 1154.72 343.323ZM928.25 337.605V335.183C928.25 333.401 929.44 332.213 931.225 332.213H1001.96C1025.89 332.213 1045.51 307.544 1045.7 307.291L1045.98 306.939L1081 265.399L1018.6 191.381L998.317 215.445C995.937 218.469 971.95 247.912 939.004 247.912H898.446H873.553H832.995C800.05 247.912 776.062 218.469 773.682 215.445L753.397 191.381L690.998 265.399L726.015 306.939L726.302 307.291C726.489 307.544 746.113 332.213 770.035 332.213H840.774C842.56 332.213 843.75 333.401 843.75 335.183V337.605V349.041V351.463C843.75 353.245 842.56 354.433 840.774 354.433H770.035C745.915 354.433 726.478 379.124 726.302 379.355L726.169 379.531L691.009 421.247L753.408 495.265L773.693 471.201C776.062 468.188 800.061 438.734 833.006 438.734H868.253H873.542H898.457H903.746H938.993C971.939 438.734 995.937 468.188 998.306 471.201L1018.59 495.265L1080.99 421.247L1045.83 379.531L1045.7 379.355C1045.52 379.124 1026.08 354.433 1001.96 354.433H931.225C929.44 354.433 928.25 353.245 928.25 351.463V349.041V337.605ZM738.799 343.324C722.737 334.386 712.253 321.497 710.721 319.543L678.04 280.775L645.359 319.543C643.827 321.49 633.342 334.383 617.279 343.323C633.342 352.263 643.827 365.156 645.359 367.103L678.04 405.871L710.721 367.103C712.253 365.156 722.737 352.265 738.799 343.324ZM512.375 337.104V335.183C512.375 333.401 513.565 332.213 515.35 332.213H586.045C610.165 332.213 629.602 307.522 629.778 307.291L629.911 307.115L665.071 265.399L567.093 149.169L566.829 148.839C566.631 148.587 547.205 123.906 523.085 123.906H452.334C452.171 123.906 452.013 123.897 451.86 123.877C451.708 123.896 451.55 123.906 451.387 123.906H380.636C356.516 123.906 337.091 148.586 336.892 148.839L336.628 149.169L238.65 265.399L273.81 307.115L273.943 307.291C274.119 307.522 293.556 332.213 317.676 332.213H388.371C390.156 332.213 391.346 333.401 391.346 335.183V337.104C391.368 337.265 391.379 337.432 391.379 337.605V351.441C391.379 353.223 390.189 354.411 388.404 354.411H352.109H352.01H317.676C293.754 354.411 274.13 379.08 273.943 379.333L273.656 379.685L238.639 421.225L301.038 495.243L321.323 471.179C323.692 468.155 347.69 438.712 380.636 438.712H451.387V438.745C451.55 438.745 451.708 438.755 451.861 438.774C452.013 438.755 452.171 438.745 452.334 438.745V438.712H523.085C556.031 438.712 580.029 468.155 582.398 471.179L602.684 495.243L665.082 421.225L630.065 379.685L629.778 379.333C629.591 379.08 609.967 354.411 586.045 354.411H551.711H551.612H515.317C513.532 354.411 512.342 353.223 512.342 351.441V337.605C512.342 337.433 512.353 337.265 512.375 337.104ZM286.442 343.323C270.379 334.383 259.894 321.49 258.362 319.543L225.681 280.774L193 319.543C191.468 321.497 180.984 334.386 164.922 343.324C180.984 352.265 191.468 365.156 193 367.103L225.681 405.871L258.362 367.103C259.894 365.156 270.379 352.263 286.442 343.323ZM903.702 228.093H868.297H867.407C867.329 228.093 867.252 228.115 867.164 228.115H832.995C809.074 228.115 789.45 203.446 789.262 203.193L788.976 202.841L766.354 176.005L789.13 148.993L789.262 148.818C789.439 148.587 808.875 123.895 832.995 123.895H867.34H867.451H868.253H903.746H904.548H904.659H939.004C963.124 123.895 982.56 148.587 982.737 148.818L982.869 148.993L1005.64 176.005L983.023 202.841L982.737 203.193C982.549 203.446 962.925 228.115 939.004 228.115H904.835C904.747 228.115 904.67 228.093 904.593 228.093H903.702ZM225.67 250.001L163.271 175.983L225.67 101.965L288.069 175.983L225.67 250.001ZM451.384 228.093H380.633C356.514 228.093 337.077 203.402 336.9 203.171L336.537 203.457L323.7 218.261C330.873 226.4 352.47 247.89 380.633 247.89H451.384C451.548 247.89 451.707 247.88 451.861 247.861C452.014 247.88 452.173 247.89 452.337 247.89H523.088C551.252 247.89 572.848 226.4 580.021 218.261L567.185 203.457L566.821 203.171C566.645 203.402 547.208 228.093 523.088 228.093H452.337C452.173 228.093 452.014 228.103 451.861 228.123C451.814 228.117 451.768 228.112 451.72 228.108C451.611 228.098 451.499 228.093 451.384 228.093ZM678.051 250.001L740.45 175.983L678.051 101.965L615.652 175.983L678.051 250.001ZM1248.91 228.093H1319.66C1319.72 228.093 1319.78 228.095 1319.83 228.097C1319.94 228.102 1320.04 228.11 1320.14 228.123C1320.29 228.103 1320.45 228.093 1320.61 228.093H1391.37C1415.49 228.093 1434.92 203.402 1435.1 203.171L1435.46 203.457L1448.3 218.261C1441.13 226.4 1419.53 247.89 1391.37 247.89H1320.61C1320.45 247.89 1320.29 247.88 1320.14 247.861C1319.98 247.88 1319.83 247.89 1319.66 247.89H1248.91C1220.75 247.89 1199.15 226.4 1191.98 218.261L1204.81 203.457L1205.18 203.171C1205.35 203.402 1224.79 228.093 1248.91 228.093ZM1093.95 250.001L1031.55 175.983L1093.95 101.965L1156.35 175.983L1093.95 250.001ZM1546.33 250.001L1608.73 175.983L1546.33 101.965L1483.93 175.983L1546.33 250.001ZM903.702 562.729H868.297H867.407C867.369 562.729 867.332 562.734 867.293 562.739C867.252 562.745 867.21 562.751 867.164 562.751H832.995C809.074 562.751 789.45 538.082 789.262 537.829L788.976 537.477L766.354 510.641L789.13 483.629L789.262 483.453C789.439 483.222 808.875 458.531 832.995 458.531H867.34H867.451H868.253H903.746H904.548H904.659H939.004C963.124 458.531 982.56 483.222 982.737 483.453L982.869 483.629L1005.64 510.641L983.023 537.477L982.737 537.829C982.549 538.082 962.925 562.751 939.004 562.751H904.835C904.789 562.751 904.747 562.745 904.706 562.739C904.683 562.736 904.66 562.733 904.638 562.731C904.622 562.729 904.607 562.729 904.593 562.729H903.702ZM225.67 584.637L163.271 510.619L225.67 436.601L288.069 510.619L225.67 584.637ZM451.384 562.729H380.633C356.514 562.729 337.077 538.038 336.9 537.807L336.537 538.093L323.7 552.897C330.873 561.036 352.47 582.526 380.633 582.526H451.384C451.548 582.526 451.707 582.516 451.861 582.497C451.941 582.507 452.022 582.514 452.105 582.519C452.181 582.524 452.259 582.526 452.337 582.526H523.088C551.252 582.526 572.848 561.036 580.021 552.897L567.185 538.093L566.821 537.807C566.645 538.038 547.208 562.729 523.088 562.729H452.337C452.173 562.729 452.014 562.739 451.861 562.759C451.707 562.739 451.548 562.729 451.384 562.729ZM678.051 584.637L740.45 510.619L678.051 436.601L615.652 510.619L678.051 584.637ZM1248.91 562.729H1319.66C1319.74 562.729 1319.82 562.732 1319.9 562.736C1319.98 562.741 1320.06 562.749 1320.14 562.759C1320.29 562.739 1320.45 562.729 1320.61 562.729H1391.37C1415.49 562.729 1434.92 538.038 1435.1 537.807L1435.46 538.093L1448.3 552.897C1441.13 561.036 1419.53 582.526 1391.37 582.526H1320.61C1320.53 582.526 1320.46 582.524 1320.38 582.519C1320.3 582.514 1320.22 582.507 1320.14 582.497C1319.98 582.516 1319.83 582.526 1319.66 582.526H1248.91C1220.75 582.526 1199.15 561.036 1191.98 552.897L1204.81 538.093L1205.18 537.807C1205.35 538.038 1224.79 562.729 1248.91 562.729ZM1093.95 584.637L1031.55 510.619L1093.95 436.601L1156.35 510.619L1093.95 584.637ZM1546.33 584.637L1608.73 510.619L1546.33 436.601L1483.93 510.619L1546.33 584.637Z" fill="url(#paint0_linear_30_37)"/>
</g>
<defs>
<linearGradient id="paint0_linear_30_37" x1="930" y1="6.66421e-07" x2="933.5" y2="687" gradientUnits="userSpaceOnUse">
<stop stop-color="#3A4353" stop-opacity="0.9"/>
<stop offset="1" stop-color="#101317" stop-opacity="0"/>
</linearGradient>
</defs>
</svg>
